<?xml version="1.0" encoding="UTF-8"?>
<svg id="Layer_2" data-name="Layer 2" xmlns="http://www.w3.org/2000/svg" viewBox="0 0 952.7 417.97">
  <defs>
    <style>
      .cls-1 {
        fill: #010101;
      }
    </style>
  </defs>
  <g id="Layer_1-2" data-name="Layer 1">
    <g>
      <g>
        <path class="cls-1" d="M694.67,78.14h-176.85c-8.23,0-14.9-6.67-14.9-14.9s6.67-14.9,14.9-14.9h176.85c8.23,0,14.9,6.67,14.9,14.9s-6.67,14.9-14.9,14.9Z"/>
        <path class="cls-1" d="M662.41,276.05c-11.78,0-23.24-2.37-34.05-7.04l-1.95-.84c-22.55-9.74-39.87-28.71-47.53-52.05l-1.54-4.68c-2.84-8.66-4.28-17.66-4.28-26.77V14.9c0-8.23,6.67-14.9,14.9-14.9s14.9,6.67,14.9,14.9v169.76c0,5.94.94,11.82,2.79,17.48l1.54,4.68c5,15.24,16.31,27.62,31.03,33.98l1.95.84c7.06,3.05,14.54,4.59,22.23,4.59,8.23,0,14.9,6.67,14.9,14.9s-6.67,14.9-14.9,14.9Z"/>
      </g>
      <g>
        <path class="cls-1" d="M312.29,382.95c5.81-10.41,14.98-17.37,12.92-30.62-4.55-29.22-46.57-27.2-48.74,1.83-.91,12.27,7.81,19.02,13.19,28.79-12.72-3.32-22.92-13.91-25.66-26.8-4.21-19.81,7.37-39.1,27.03-43.97,25.81-6.39,49.91,12.24,47.63,39.25-1.23,14.6-12.25,27.79-26.39,31.52Z"/>
        <path class="cls-1" d="M310.89,391.49l-19.63.03c-2.68-.41-2.79-4.68.2-5.01,5.96-.67,13.16.49,19.25.02,2.67.38,2.72,4.28.18,4.96Z"/>
        <path class="cls-1" d="M309.21,398.82l-16.27.03c-2.97-.72-2.58-4.8.42-5.2,4.6-.63,10.51.41,15.25,0,2.98.41,3.38,4.26.6,5.17Z"/>
        <path class="cls-1" d="M293.65,401.17h14.66c-.18,3.24-4.25,4.52-7.01,4.62-2.88.1-7.44-1.2-7.66-4.62Z"/>
      </g>
      <g>
        <path class="cls-1" d="M580.42,382.95c5.81-10.41,14.98-17.37,12.92-30.62-4.55-29.22-46.57-27.2-48.74,1.83-.91,12.27,7.81,19.02,13.19,28.79-12.72-3.32-22.92-13.91-25.66-26.8-4.21-19.81,7.37-39.1,27.03-43.97,25.81-6.39,49.91,12.24,47.63,39.25-1.23,14.6-12.25,27.79-26.39,31.52Z"/>
        <path class="cls-1" d="M579.01,391.49l-19.63.03c-2.68-.41-2.79-4.68.2-5.01,5.96-.67,13.16.49,19.25.02,2.67.38,2.72,4.28.18,4.96Z"/>
        <path class="cls-1" d="M577.33,398.82l-16.27.03c-2.97-.72-2.58-4.8.42-5.2,4.6-.63,10.51.41,15.25,0,2.98.41,3.38,4.26.6,5.17Z"/>
        <path class="cls-1" d="M561.78,401.17h14.66c-.18,3.24-4.25,4.52-7.01,4.62-2.88.1-7.44-1.2-7.66-4.62Z"/>
      </g>
      <path class="cls-1" d="M183.98,313.91c-11.62,0-20.9,5.42-26.79,15.02v-14.1c-19.21,0-21.84,0-21.84,11.77v89.33c4.36-2.39,9.35-3.75,14.64-3.75h2.49c1.6,0,3.17.12,4.7.37v-29.12c4.95,6.2,12.23,8.99,20.9,8.99,20.75,0,34.84-19.51,34.84-42.43,0-20.9-9.29-36.08-28.95-36.08ZM172.52,374.15c-9.91,0-14.25-8.83-14.25-16.88,0-14.87,6.97-25.56,17.81-25.56s14.09,9.14,14.09,18.9c0,11.77-6.04,23.53-17.65,23.53Z"/>
      <path class="cls-1" d="M215.73,390.87v-64.26c0-11.77,2.63-11.77,21.83-11.77v15.18c6.04-10.99,13.63-16.1,21.06-16.1,6.5,0,8.21,4.65,6.97,21.52-17.65-2.79-28.03,3.72-28.03,25.09v30.35h-21.83Z"/>
      <path class="cls-1" d="M366.09,332.65v25.71c0,10.99,3.87,16.88,14.09,16.88,4.49,0,8.67-.77,13.32-2.79v5.42c0,10.68-11.77,14.56-23.23,14.56-15.33,0-26.01-7.43-26.01-30.2v-30.35l-12.23-5.26c.31-3.72,2.01-8.21,3.87-11.15h8.36v-5.42c0-11.77,2.63-11.77,21.83-11.77v17.19h21.06c7.59,0,7.59,4.65,7.59,17.19h-28.65Z"/>
      <path class="cls-1" d="M419.67,347.2l17.03-1.7v-.46c-.62-12.08-9.45-15.02-19.51-15.02-6.81,0-13.16,2.01-19.05,4.49v-5.88c0-10.84,16.88-14.71,28.34-14.71,15.64,0,30.81,4.95,32.52,30.51l2.79,38.25c.62,8.83-8.21,8.83-22.45,8.83l-.77-11.77c-6.04,7.9-14.56,12.7-25.24,12.7-15.33,0-22.3-11.61-22.3-22.76,0-12.23,7.9-20.6,28.65-22.45ZM422.92,377.24c8.52,0,13.94-9.76,14.4-19.05l-14.25,1.7c-5.26.77-8.36,4.18-8.36,8.52,0,4.96,2.94,8.83,8.21,8.83Z"/>
      <path class="cls-1" d="M517.38,318.55v.46c7.28,4.34,11.77,11.3,11.77,20.6,0,16.41-15.49,25.55-33.76,25.55h-1.39c-5.42.31-8.67,2.01-8.67,4.65,0,2.48,2.63,3.87,7.9,3.87h11.3c19.36,0,29.42,5.11,29.42,18.74,0,18.89-21.68,25.55-42.12,25.55-19.2,0-33.76-5.57-33.76-17.19,0-7.59,5.26-11.61,13.32-13.78-4.49-2.63-7.59-6.5-7.59-11.92,0-7.12,5.42-11.3,12.7-13.47-8.83-4.03-14.71-11.3-14.71-21.99,0-17.34,13.94-25.71,33.6-25.71,3.56,0,6.81.46,9.91.93-.16-.77-.16-1.86-.16-2.94,0-12.39,11.77-18.89,23.23-18.89,6.81,0,7.9,4.96,7.9,18.74-9.91-.62-18.89,2.79-18.89,6.81ZM490.9,390.87c-7.28.31-11.3,2.32-11.3,6.19,0,5.42,5.57,7.43,14.56,7.43s16.72-2.32,16.72-8.05c0-4.65-5.11-5.57-11.92-5.57h-8.05ZM495.39,329.55c-7.43,0-11.46,3.87-11.46,10.99,0,6.66,4.8,10.99,11.46,10.99s11.77-4.8,11.77-10.99c0-6.81-4.18-10.99-11.77-10.99Z"/>
      <path class="cls-1" d="M660.31,391.49v-42.89c0-9.76-3.87-15.18-12.7-15.18-8.21,0-16.88,6.35-16.88,18.43v39.02h-21.83v-64.26c0-11.77,2.63-11.77,21.83-11.77v13.78c6.66-9.91,16.41-14.71,27.1-14.71,16.1,0,24.31,9.45,24.31,25.71v40.26c0,11.61-2.63,11.61-21.83,11.61Z"/>
      <path class="cls-1" d="M698.87,304.62c-10.07,0-13.63-4.18-13.63-12.39s3.56-12.39,13.63-12.39,13.47,4.34,13.47,12.39-3.87,12.39-13.47,12.39ZM687.26,390.87v-64.26c0-11.77,2.63-11.77,21.83-11.77v76.03h-21.83Z"/>
      <path class="cls-1" d="M739.13,392.42c-9.29,0-22.61-2.32-22.61-14.4v-5.26c5.11,2.32,11.46,3.87,17.19,3.87,6.97,0,12.08-2.01,12.08-6.04,0-10.07-34.22-2.17-34.22-30.51,0-16.26,14.4-26.17,32.52-26.17,16.88,0,27.56,7.74,27.56,18.12,0,6.81-4.8,9.45-11.61,9.45h-6.04v-2.63c0-5.73-3.25-9.29-9.76-9.29-6.04,0-9.29,3.72-9.29,7.59,0,15.33,34.22,4.49,34.22,31.43,0,16.41-14.71,23.85-30.04,23.85Z"/>
      <path class="cls-1" d="M801.23,332.65v25.71c0,10.99,3.87,16.88,14.09,16.88,4.49,0,8.67-.77,13.32-2.79v5.42c0,10.68-11.77,14.56-23.23,14.56-15.33,0-26.02-7.43-26.02-30.2v-30.35l-12.23-5.26c.31-3.72,2.01-8.21,3.87-11.15h8.36v-5.42c0-11.77,2.63-11.77,21.83-11.77v17.19h21.06c7.59,0,7.59,4.65,7.59,17.19h-28.65Z"/>
      <path class="cls-1" d="M854.81,347.2l17.03-1.7v-.46c-.62-12.08-9.45-15.02-19.51-15.02-6.81,0-13.16,2.01-19.05,4.49v-5.88c0-10.84,16.88-14.71,28.34-14.71,15.64,0,30.82,4.95,32.52,30.51l2.79,38.25c.62,8.83-8.21,8.83-22.45,8.83l-.77-11.77c-6.04,7.9-14.56,12.7-25.24,12.7-15.33,0-22.3-11.61-22.3-22.76,0-12.23,7.9-20.6,28.65-22.45ZM858.06,377.24c8.52,0,13.94-9.76,14.4-19.05l-14.25,1.7c-5.26.77-8.36,4.18-8.36,8.52,0,4.96,2.94,8.83,8.21,8.83Z"/>
      <path class="cls-1" d="M73.4,313.84c-1.66,0-3.35-.07-5.04-.2-24.5-1.88-42.83-10.04-54.47-24.26-11.48-14.03-13.89-30.83-13.89-42.46,0-7.28,2.08-18.6,6.72-27.46,7.71-14.72,18.83-22.68,26.8-26.77l.2-.1.11-.2c3.27-6.3,9.69-10.21,16.75-10.21,5.03,0,9.77,1.97,13.34,5.55,3.58,3.58,5.55,8.32,5.55,13.34v1.6c0,10.42-8.47,18.89-18.89,18.89-1.15,0-2.28-.1-3.36-.31l-.24-.05-.22.11c-15.01,7.54-14.8,22.8-12.94,35.25,2.67,17.95,14.27,28.25,31.83,28.25,23.31,0,33.17-30.25,34.53-56.15.6-11.73.6-37.88.6-55.19,0-25.06.18-44.73.31-59.09.19-20.1.22-26.51-.21-27.52-.73-1.73-5.78-1.94-18.96-2.07-10.27-.1-21.9-.21-28.07-1.98-4.08-1.17-5.76-6.16-5.29-15.69.17-3.41,3.26-8.43,7.92-8.85,5.89-.53,15.69-.8,29.13-.8,10.47,0,20.9.16,27.13.26,2.82.04,4.85.08,5.77.08,4.75,0,12.86,1.2,14.41,4.42,1.85,3.85,1.59,12.1,1.36,19.38-.08,2.42-.15,4.71-.16,6.87-.03,11.35.39,22.45.88,35.3.58,15.11,1.23,32.24,1.23,53.48,0,14.09-.31,39.1-.9,49.44.49,30.41-7.56,55.59-22.69,70.96-10.43,10.6-24,16.2-39.24,16.2h0ZM50.57,188.44c-3.57,0-6.93,1.4-9.49,3.94-2.54,2.54-3.94,5.9-3.94,9.48,0,7.41,6.02,13.43,13.43,13.43,3.58,0,6.94-1.4,9.48-3.94,2.54-2.55,3.94-5.92,3.94-9.49s-1.4-6.94-3.94-9.48c-2.54-2.54-5.91-3.94-9.48-3.94Z"/>
      <g>
        <path class="cls-1" d="M145.71,169.65c0-15.96.47-31.69,1.88-45.04.94-9.05,7.3-11.44,13.18-11.44,7.53,0,13.89,3.81,13.89,12.87,0,4.77-1.65,17.16-1.65,41.22,0,21.92,9.65,31.69,24.24,31.69s24.24-9.77,24.24-31.69c0-24.07-1.65-36.46-1.65-41.22,0-9.05,6.35-12.87,13.89-12.87,5.88,0,12.24,2.38,13.18,11.44,1.41,13.34,1.88,29.07,1.88,45.04,0,34.07-19.77,52.66-51.54,52.66s-51.54-18.59-51.54-52.66Z"/>
        <path class="cls-1" d="M262.87,112.94c5.88,0,11.06,2.62,12.71,10.25,4.71,21.45,11.53,50.52,22.13,70.77.94,1.91,2.12,2.86,3.29,2.86s2.35-.95,3.29-2.86c10.59-20.25,17.42-49.33,22.12-70.77,1.65-7.63,6.83-10.25,12.71-10.25,9.41,0,15.53,5.48,13.41,15.49-4.47,21.21-12.24,49.8-23.07,71.25-7.77,15.25-16.71,22.64-28.48,22.64s-20.71-7.39-28.48-22.64c-10.83-21.45-18.36-50.04-23.07-71.25-2.12-10.01,4-15.49,13.42-15.49Z"/>
        <path class="cls-1" d="M347.66,166.32c0-31.93,21.18-55.28,58.84-55.28,29.18,0,47.07,15.01,47.07,34.79s-17.89,34.31-49.9,34.31c-7.06,0-15.53-.71-22.12-2.14-3.29-.71-4.47.48-3.53,3.57,2.82,9.29,12.47,17.39,28.71,17.39,9.42,0,17.42-3.57,21.89-6.19,2.35-1.43,4.71-1.91,6.83-1.91,4.47,0,8.24,2.38,10.12,6.19,3.29,6.43.24,12.39-7.53,17.16-6.59,4.05-19.06,7.39-32.25,7.39-35.07,0-58.13-22.88-58.13-55.28ZM379.2,156.55c6.12,1.91,13.65,2.38,20.24,2.38,16,0,26.36-4.53,26.36-13.58,0-7.39-8.47-12.15-20.01-12.15-14.12,0-26.12,6.91-29.42,18.82-.47,2.14.47,3.81,2.82,4.53Z"/>
        <path class="cls-1" d="M451.82,126.29c0-6.67,6.59-14.06,14.36-14.06,4.47,0,8.47,1.91,11.77,6.91l3.06,4.77c1.18,1.19,2.59,1.19,4.24-.48,6.12-7.63,20.01-11.68,32.01-11.68,29.66,0,49.19,18.82,49.19,52.9,0,15.96-.71,31.69-2.12,45.04-.94,9.05-7.06,11.2-13.18,11.2-7.53,0-13.89-3.34-13.89-12.39,0-4.77,1.88-18.35,1.88-42.42,0-21.21-9.41-31.22-24.01-31.22s-24.95,10.72-24.95,31.69c0,24.07,1.88,36.93,1.88,41.7,0,9.05-7.06,12.63-13.89,12.63-6.12,0-11.77-1.43-13.41-12.63-1.65-11.68-1.88-29.79-1.88-42.18,0-16.92-1.18-24.54-8-32.41-2.12-2.14-3.06-4.77-3.06-7.39Z"/>
        <path class="cls-1" d="M616.49,169.65c0-15.96.47-31.69,1.88-45.04.94-9.05,7.3-11.44,13.18-11.44,7.53,0,13.89,3.81,13.89,12.87,0,4.77-1.65,17.16-1.65,41.22,0,21.92,9.65,31.69,24.24,31.69s24.24-9.77,24.24-31.69c0-24.07-1.65-36.46-1.65-41.22,0-9.05,6.35-12.87,13.89-12.87,5.88,0,12.24,2.38,13.18,11.44,1.41,13.34,1.88,29.07,1.88,45.04,0,34.07-19.77,52.66-51.54,52.66s-51.54-18.59-51.54-52.66Z"/>
        <path class="cls-1" d="M796.21,112.94c2.59,0,6.83.24,7.77.24,1.88,0,3.53-.95,3.53-3.34,0-25.97-2.35-40.98-2.35-47.42,0-9.05,6.35-12.87,13.89-12.87,6.12,0,12.47,2.38,13.18,11.44,1.88,23.83,2.59,49.09,2.59,74.58,0,21.68-.24,42.42-1.88,60.76-1.41,16.44-13.41,25.97-48.96,25.97s-57.66-22.88-57.66-52.18,19.77-57.19,69.9-57.19ZM754.08,170.85c0,15.49,9.89,28.6,30.6,28.6,14.83,0,21.18-2.86,21.65-10.01,1.18-16.2,1.65-32.17,1.65-46.23,0-4.53-1.18-7.15-12-7.15-27.54,0-41.89,15.25-41.89,34.79Z"/>
        <path class="cls-1" d="M846.78,167.03c0-31.93,21.18-55.28,58.84-55.28,29.18,0,47.07,15.01,47.07,34.79s-17.89,34.31-49.9,34.31c-7.06,0-15.53-.71-22.12-2.14-3.29-.71-4.47.48-3.53,3.57,2.82,9.29,12.47,17.39,28.71,17.39,9.42,0,17.42-3.57,21.89-6.19,2.35-1.43,4.71-1.91,6.83-1.91,4.47,0,8.24,2.38,10.12,6.19,3.29,6.43.24,12.39-7.53,17.16-6.59,4.05-19.06,7.39-32.25,7.39-35.07,0-58.13-22.88-58.13-55.28ZM878.32,157.26c6.12,1.91,13.65,2.38,20.24,2.38,16,0,26.36-4.53,26.36-13.58,0-7.39-8.47-12.15-20.01-12.15-14.12,0-26.12,6.91-29.42,18.82-.47,2.14.47,3.81,2.82,4.53Z"/>
      </g>
    </g>
  </g>
</svg>